<svg width="50" height="50" fill="none" xmlns="http://www.w3.org/2000/svg"><path fill="#fff" d="M0 0h50v50H0z"/><g clip-path="url(#clip0)"><path d="M38.867 22.392H26.631a.978.978 0 00-.979.978v3.909c0 .54.438.978.979.978h6.89a9.2 9.2 0 01-3.96 4.64l2.939 5.087c4.713-2.726 7.5-7.51 7.5-12.863 0-.763-.056-1.308-.169-1.921a.983.983 0 00-.964-.808z" fill="#167EE6"/><path d="M25 34.13c-3.372 0-6.316-1.842-7.898-4.569l-5.086 2.932C14.605 36.979 19.453 40 25 40c2.72 0 5.288-.733 7.5-2.01v-.006l-2.938-5.087A9.062 9.062 0 0125 34.13z" fill="#12B347"/><path d="M32.5 37.99v-.006l-2.938-5.087A9.062 9.062 0 0125 34.13V40c2.72 0 5.288-.733 7.5-2.01z" fill="#0F993E"/><path d="M15.87 25c0-1.662.453-3.217 1.233-4.561l-5.087-2.932A14.844 14.844 0 0010 25c0 2.728.732 5.288 2.016 7.493l5.087-2.932A9.062 9.062 0 0115.87 25z" fill="#FFD500"/><path d="M25 15.87c2.199 0 4.219.781 5.797 2.08a.974.974 0 001.311-.058l2.77-2.77a.986.986 0 00-.056-1.442A14.955 14.955 0 0025 10c-5.547 0-10.395 3.02-12.984 7.507l5.086 2.932c1.582-2.727 4.526-4.57 7.898-4.57z" fill="#FF4B26"/><path d="M30.797 17.95a.974.974 0 001.311-.058l2.77-2.77a.986.986 0 00-.056-1.442A14.955 14.955 0 0025 10v5.87c2.199 0 4.219.781 5.797 2.08z" fill="#D93F21"/></g><defs><clipPath id="clip0"><path fill="#fff" transform="translate(10 10)" d="M0 0h30v30H0z"/></clipPath></defs></svg>