<svg width="70" height="48" fill="none" xmlns="http://www.w3.org/2000/svg"><rect width="70" height="48" rx="6" fill="#fff"/><path fill-rule="evenodd" clip-rule="evenodd" d="M33.06 31.516v-6.042h3.119c1.277 0 2.356-.428 3.235-1.273l.211-.214a4.35 4.35 0 00-.21-6.09 4.45 4.45 0 00-3.236-1.295h-5.006v14.914h1.887zm0-7.874v-5.209h3.166c.68 0 1.325.262 1.806.737 1.02 1 1.043 2.665.059 3.7a2.45 2.45 0 01-1.865.772H33.06zm15.37-1.534c-.81-.75-1.911-1.13-3.307-1.13-1.793 0-3.141.666-4.032 1.986l1.664 1.059c.61-.904 1.442-1.356 2.497-1.356.669 0 1.313.25 1.817.702a2.25 2.25 0 01.774 1.7v.44c-.727-.404-1.641-.618-2.767-.618-1.313 0-2.368.31-3.153.94-.785.63-1.184 1.463-1.184 2.521a3.174 3.174 0 001.114 2.498c.738.666 1.676.999 2.778.999 1.301 0 2.333-.583 3.118-1.748h.082v1.415h1.806v-6.292c0-1.32-.399-2.366-1.208-3.116zm-5.123 7.529a1.551 1.551 0 01-.622-1.25c0-.558.258-1.022.762-1.39.516-.37 1.161-.56 1.923-.56 1.056-.012 1.876.226 2.463.702 0 .809-.317 1.51-.938 2.105a2.978 2.978 0 01-2.123.892 2.284 2.284 0 01-1.465-.5zM53.693 36L60 21.31h-2.05l-2.92 7.327h-.035l-2.99-7.327h-2.05l4.138 9.55L51.747 36h1.946z" fill="#3C4043"/><path d="M26.544 24.166c0-.583-.047-1.166-.14-1.737h-7.96v3.295h4.56a3.97 3.97 0 01-1.688 2.604v2.141h2.72c1.594-1.486 2.508-3.687 2.508-6.303z" fill="#4285F4"/><path d="M18.444 32.539c2.274 0 4.197-.762 5.592-2.07l-2.72-2.14c-.762.523-1.735.82-2.872.82-2.204 0-4.068-1.51-4.736-3.532h-2.802v2.212c1.43 2.89 4.35 4.71 7.538 4.71z" fill="#34A853"/><path d="M13.708 25.617a5.238 5.238 0 010-3.283v-2.2h-2.802a8.6 8.6 0 000 7.683l2.802-2.2z" fill="#FBBC04"/><path d="M18.444 18.802a4.507 4.507 0 013.235 1.284l2.415-2.45a8.084 8.084 0 00-5.65-2.224c-3.189 0-6.108 1.832-7.538 4.722l2.802 2.212c.668-2.034 2.532-3.544 4.736-3.544z" fill="#EA4335"/></svg>