<svg width="75" height="75" fill="none" xmlns="http://www.w3.org/2000/svg"><path d="M16.342 35.506v-23.67l14.462 13.91c.39.389.778.81 1.2 1.264.389.454.843.94 1.264 1.524v-15.79h3.438V36.38L21.919 22.244c-.389-.39-.778-.778-1.134-1.2a20.818 20.818 0 01-1.038-1.33v15.824h-3.405v-.032zm25.292-22.503h3.664v13.813c0 2.043.487 3.599 1.427 4.637.94 1.037 2.367 1.556 4.248 1.556 1.88 0 3.275-.519 4.247-1.556.94-1.038 1.427-2.562 1.427-4.637V13.003h3.697v14.17c0 3.08-.779 5.382-2.335 6.906s-3.891 2.302-7.036 2.302c-3.146 0-5.48-.745-7.004-2.27-1.557-1.523-2.302-3.826-2.302-6.906V13.003h-.033zM39.3 50.843c0 1.621-.292 3.145-.908 4.572a11.93 11.93 0 01-2.66 3.859 12.127 12.127 0 01-3.955 2.594c-1.46.616-3.016.907-4.637.907-1.654 0-3.21-.291-4.702-.907a12.31 12.31 0 01-3.956-2.594 11.802 11.802 0 01-2.659-3.827c-.616-1.426-.907-2.95-.907-4.604 0-1.621.291-3.178.907-4.605a11.93 11.93 0 012.66-3.858 12.31 12.31 0 013.955-2.594 12.576 12.576 0 014.67-.876c1.653 0 3.177.292 4.669.876a12.14 12.14 0 013.956 2.594 12.061 12.061 0 012.659 3.891c.616 1.46.907 2.983.907 4.572zm-3.827 0a8.643 8.643 0 00-.616-3.275c-.421-1.038-1.037-1.945-1.816-2.756a7.867 7.867 0 00-2.658-1.848 8.226 8.226 0 00-3.21-.649c-1.135 0-2.173.227-3.21.649a7.992 7.992 0 00-2.692 1.848c-.778.81-1.394 1.718-1.816 2.756-.421 1.038-.616 2.14-.616 3.307 0 1.135.195 2.238.616 3.275a8.156 8.156 0 001.816 2.757 7.994 7.994 0 002.691 1.848 8.189 8.189 0 006.388 0 7.994 7.994 0 002.691-1.848c.779-.811 1.395-1.719 1.816-2.757.39-1.07.616-2.14.616-3.307zm17.251-7.328v19.618h-3.697V43.515h-6.063V40.37h15.758v3.145h-5.998z" fill="#144563"/><path d="M75 75H0V0h74.968v75H75zM3.048 71.92H71.92V3.048H3.048V71.92z" fill="#144563"/><path d="M70.428 70.428H4.572V4.572h65.856v65.856zM5.61 69.358h63.748V5.61H5.61v63.748z" fill="#144563"/><path d="M68.223 68.223H6.777V6.777h61.446v61.446zm-60.668-.778h59.89V7.555H7.555v59.89z" fill="#144563"/><path d="M1.837 1.056l-.757.756 5.71 5.71.756-.757-5.71-5.71zm71.332.04L67.455 6.8l.756.757 5.714-5.705-.756-.757zM68.2 67.46l-.748.766 5.705 5.574.748-.765L68.2 67.46zm-61.418-.025l-5.701 5.578.748.765L7.53 68.2l-.749-.765z" fill="#144563"/></svg>