<svg width="70" height="48" fill="none" xmlns="http://www.w3.org/2000/svg"><rect width="70" height="48" rx="6" fill="#fff"/><path fill-rule="evenodd" clip-rule="evenodd" d="M35.395 34.762a13.502 13.502 0 01-8.853 3.298c-7.537 0-13.647-6.181-13.647-13.806 0-7.625 6.11-13.806 13.647-13.806a13.5 13.5 0 018.853 3.298 13.502 13.502 0 018.852-3.298c7.538 0 13.648 6.18 13.648 13.806 0 7.625-6.11 13.806-13.648 13.806-3.378 0-6.47-1.242-8.852-3.298z" fill="#ED0006"/><path fill-rule="evenodd" clip-rule="evenodd" d="M35.395 34.762a13.84 13.84 0 004.795-10.508c0-4.208-1.86-7.976-4.795-10.508a13.502 13.502 0 018.852-3.298c7.538 0 13.648 6.18 13.648 13.806 0 7.625-6.11 13.806-13.648 13.806-3.378 0-6.47-1.242-8.852-3.298z" fill="#F9A000"/><path fill-rule="evenodd" clip-rule="evenodd" d="M35.395 13.746a13.841 13.841 0 014.795 10.508c0 4.208-1.86 7.976-4.795 10.508A13.841 13.841 0 0130.6 24.254c0-4.208 1.86-7.976 4.795-10.508z" fill="#FF5E00"/></svg>