<svg width="60" height="60" fill="none" xmlns="http://www.w3.org/2000/svg"><path d="M11.875 16.29a1.016 1.016 0 001.163-.008 30.348 30.348 0 003.706-3.184c2.563-2.6 3.862-4.98 3.862-7.082 0-1.323-.471-2.73-1.294-3.858C18.372.866 17.14.155 15.842.155c-1.292 0-2.508.564-3.391 1.514C11.569.72 10.354.155 9.063.155c-1.302 0-2.535.711-3.475 2.003-.824 1.128-1.294 2.534-1.294 3.858 0 5.022 7.271 10.062 7.581 10.275zm18.2 43.555c13.021 0 24.642-7.414 29.604-18.889a3.875 3.875 0 00-2.018-5.093 3.87 3.87 0 00-5.091 2.02c-3.737 8.634-12.563 14.215-22.494 14.215-10.159 0-19.04-5.575-22.625-14.208a3.874 3.874 0 10-7.153 2.97c4.786 11.532 16.476 18.985 29.777 18.985zM48.183 16.29a1.02 1.02 0 001.163-.008 30.365 30.365 0 003.706-3.184c2.562-2.6 3.862-4.98 3.862-7.082 0-1.323-.471-2.73-1.294-3.858C54.68.866 53.446.155 52.15.155c-1.292 0-2.508.564-3.391 1.514C47.877.72 46.66.155 45.369.155c-1.301 0-2.534.711-3.474 2.003-.823 1.128-1.294 2.534-1.294 3.858 0 5.022 7.273 10.062 7.582 10.275z" fill="#FA8A3E"/></svg>